<svg width="358px" height="88px" version="1.1" xmlns="http://www.w3.org/2000/svg" xmlns:xlink="http://www.w3.org/1999/xlink" overflow="visible"><desc>Engraved by Verovio 1.1.6-[undefined]</desc><defs><symbol id="E050" viewBox="0 0 1000 1000" overflow="inherit"><path transform="scale(1,-1)" d="M441 -245c-23 -4 -48 -6 -76 -6c-59 0 -102 7 -130 20c-88 42 -150 93 -187 154c-26 44 -43 103 -48 176c-4 60 11 123 44 189c29 57 65 106 110 148s96 85 153 127c-3 16 -8 46 -13 92c-4 43 -5 73 -5 89c0 117 16 172 69 257c34 54 64 82 89 82c21 0 43 -30 69 -92 s39 -115 41 -159c2 -120 -19 -173 -67 -256c-13 -20 -63 -90 -98 -118c-13 -9 -25 -19 -37 -29l31 -181c8 1 18 2 28 2c58 0 102 -12 133 -35c59 -43 92 -104 98 -184c11 -135 -80 -229 -180 -270c8 -57 17 -110 25 -162c5 -31 6 -58 6 -80c0 -30 -5 -53 -14 -70 c-35 -64 -88 -99 -158 -103c-42 -3 -83 6 -124 26c-50 24 -77 59 -80 105c-2 34 5 63 20 87c18 28 45 42 79 44c51 4 99 -40 103 -87c4 -56 -30 -94 -105 -115c17 -24 51 -36 102 -36c62 0 116 43 140 85c9 16 13 41 13 74c0 20 -1 42 -5 67c-8 53 -18 106 -26 159zM461 939 c-95 0 -135 -175 -135 -286c0 -24 2 -48 5 -71c50 39 92 82 127 128c43 57 63 106 60 148c-4 54 -23 82 -57 81zM406 119l54 -326c80 27 116 88 109 184c-7 99 -62 146 -163 142zM382 117c-74 -2 -132 -50 -128 -127c2 -46 43 -99 75 -115c-3 -2 -7 -5 -10 -10 c-70 33 -116 88 -123 172c-5 73 42 135 88 170c23 17 49 29 78 36l-29 170c-21 -13 -52 -37 -92 -73c-50 -44 -86 -84 -109 -119c-49 -75 -71 -140 -67 -195c5 -68 35 -127 93 -176s125 -73 203 -73c25 0 50 3 75 9c-19 111 -36 221 -54 331z" /></symbol><symbol id="E260" viewBox="0 0 1000 1000" overflow="inherit"><path transform="scale(1,-1)" d="M20 110c32 16 54 27 93 27c26 0 35 -3 54 -13c13 -7 24 -20 27 -38l4 -25c0 -28 -16 -57 -45 -89c-23 -25 -39 -44 -65 -68l-88 -79v644h20v-359zM90 106c-32 0 -48 -10 -70 -29v-194c31 31 54 59 71 84c21 32 32 59 32 84c0 9 1 16 1 20c0 14 -3 21 -11 30l-8 3z" /></symbol><symbol id="E083" viewBox="0 0 1000 1000" overflow="inherit"><path transform="scale(1,-1)" d="M188 250c97 0 177 -52 177 -116c0 -69 -40 -111 -118 -125c56 -5 125 -44 125 -116c0 -31 -10 -57 -31 -78c-19 -21 -45 -38 -78 -49l-50 -11c-15 -3 -36 -7 -55 -7c-50 0 -86 16 -113 38c-16 10 -23 18 -34 34c-7 13 -11 25 -11 38c0 43 27 83 68 83l3 -2 c61 0 75 -42 75 -70c0 -19 -24 -42 -26 -57c7 -17 20 -25 37 -25c44 0 94 29 94 78c0 75 -34 125 -138 125v36c84 0 131 22 131 98c0 54 -37 88 -87 88c-26 0 -43 -7 -51 -22c15 -22 44 -16 44 -70c0 -37 -37 -62 -71 -62c-22 0 -69 15 -69 76c0 79 101 116 178 116z" /></symbol><symbol id="E084" viewBox="0 0 1000 1000" overflow="inherit"><path transform="scale(1,-1)" d="M0 -78c84 97 114 180 134 329h170c-13 -32 -82 -132 -99 -151l-84 -97c-33 -36 -59 -63 -80 -81h162v102l127 123v-225h57v-39h-57v-34c0 -43 19 -65 57 -65v-34h-244v36c48 0 60 26 60 70v27h-203v39z" /></symbol><symbol id="E0A4" viewBox="0 0 1000 1000" overflow="inherit"><path transform="scale(1,-1)" d="M0 -39c0 68 73 172 200 172c66 0 114 -37 114 -95c0 -84 -106 -171 -218 -171c-64 0 -96 30 -96 94z" /></symbol></defs><style type="text/css">g.page-margin{font-family:Times;} g.tempo{font-weight:bold;} g.dir, g.dynam {font-style:italic;}</style><svg class="definition-scale" viewBox="0 0 7170 1770"><g class="page-margin" transform="translate(0, 0)"><g class="system" id="system-0000001834214889"><g class="section boundaryStart" id="section-0000000219385980" /><g class="measure" id="measure-0000000485074447"><g class="staff" id="staff-0000001386626371"><path d="M0 720 L4797 720" stroke="#000000" stroke-width="20" /><path d="M0 900 L4797 900" stroke="#000000" stroke-width="20" /><path d="M0 1080 L4797 1080" stroke="#000000" stroke-width="20" /><path d="M0 1260 L4797 1260" stroke="#000000" stroke-width="20" /><path d="M0 1440 L4797 1440" stroke="#000000" stroke-width="20" /><g class="clef" id="clef-0000001571751473"><use xlink:href="#E050" x="90" y="1260" height="720px" width="720px" /></g><g class="keySig" id="ksig-0000001738236023"><use xlink:href="#E260" x="735" y="1080" height="720px" width="720px" /></g><g class="meterSig" id="msig-0000001042318908"><use xlink:href="#E083" x="1058" y="900" height="720px" width="720px" /><use xlink:href="#E084" x="1057" y="1260" height="720px" width="720px" /></g><g class="ledgerLines below"><path d="M4184 1620 L4470 1620" stroke="#000000" stroke-width="35" /></g><g class="layer" id="layer-0000001696336710"><g class="beam" id="beam-0000000129292438"><polygon points="1811,45 2597,122 2597,212 1811,135 " /><polygon points="2271,226 2597,257 2597,347 2271,316 " /><g class="note" id="note-0000001563961695"><use xlink:href="#E0A4" x="1605" y="720" height="720px" width="720px" /><g class="stem" id="stem-0000000053778437"><rect x="1811" y="65" height="633" width="20" /></g></g><g class="note" id="note-0000001245767832"><use xlink:href="#E0A4" x="2055" y="1350" height="720px" width="720px" /><g class="stem" id="stem-0000002086113758"><rect x="2261" y="111" height="1217" width="20" /></g></g><g class="note" id="note-0000000679500819"><use xlink:href="#E0A4" x="2371" y="1260" height="720px" width="720px" /><g class="stem" id="stem-0000000616676662"><rect x="2577" y="142" height="1096" width="20" /></g></g></g><g class="beam" id="beam-0000001034382578"><polygon points="2893,482 3679,405 3679,495 2893,572 " /><polygon points="3353,572 3679,540 3679,630 3353,662 " /><g class="note" id="note-0000000815093322"><use xlink:href="#E0A4" x="2687" y="1170" height="720px" width="720px" /><g class="stem" id="stem-0000001758532513"><rect x="2893" y="502" height="646" width="20" /></g></g><g class="note" id="note-0000001322584359"><use xlink:href="#E0A4" x="3137" y="1170" height="720px" width="720px" /><g class="stem" id="stem-0000001789222246"><rect x="3343" y="457" height="691" width="20" /></g></g><g class="note" id="note-0000000219862083"><use xlink:href="#E0A4" x="3453" y="1080" height="720px" width="720px" /><g class="stem" id="stem-0000000714164024"><rect x="3659" y="425" height="633" width="20" /></g></g></g><g class="beam" id="beam-0000001754844710"><polygon points="3975,360 4445,406 4445,496 3975,450 " /><g class="note" id="note-0000000911128088"><use xlink:href="#E0A4" x="3769" y="990" height="720px" width="720px" /><g class="stem" id="stem-0000001728420291"><rect x="3975" y="380" height="588" width="20" /></g></g><g class="note" id="note-0000001704754075"><use xlink:href="#E0A4" x="4219" y="1620" height="720px" width="720px" /><g class="stem" id="stem-0000002065722583"><rect x="4425" y="426" height="1172" width="20" /></g></g></g></g></g><g class="barLineAttr" id="bline-0000000385631422"><path d="M4782 720 L4782 1440" stroke="#000000" stroke-width="30" /></g></g><g class="measure" id="measure-0000000097487362"><g class="staff" id="staff-0000001850592135"><path d="M4797 720 L7175 720" stroke="#000000" stroke-width="20" /><path d="M4797 900 L7175 900" stroke="#000000" stroke-width="20" /><path d="M4797 1080 L7175 1080" stroke="#000000" stroke-width="20" /><path d="M4797 1260 L7175 1260" stroke="#000000" stroke-width="20" /><path d="M4797 1440 L7175 1440" stroke="#000000" stroke-width="20" /><g class="layer" id="layer-0000000128588428"><g class="note" id="note-0000001979189127"><use xlink:href="#E0A4" x="4977" y="1350" height="720px" width="720px" /><g class="stem" id="stem-0000000915192010"><rect x="5183" y="720" height="608" width="20" /></g></g><g class="note" id="note-0000001831167067"><use xlink:href="#E0A4" x="5667" y="1170" height="720px" width="720px" /><g class="stem" id="stem-0000000629451290"><rect x="5873" y="540" height="608" width="20" /></g></g><g class="note" id="note-0000001899332252"><use xlink:href="#E0A4" x="6357" y="990" height="720px" width="720px" /><g class="stem" id="stem-0000000019011410"><rect x="6357" y="1012" height="608" width="20" /></g></g></g></g><g class="barLineAttr" id="bline-0000000585846922"><path d="M7160 720 L7160 1440" stroke="#000000" stroke-width="30" /></g></g><g class="boundaryEnd section-0000000219385980" id="bdend-0000001009315600" /></g></g></svg></svg>